# Blender v2.76 (sub 0) OBJ File: ''
# www.blender.org
o Plane
v -36.387474 0.034721 36.201904
v 36.188309 0.034721 36.201904
v -36.387474 0.034721 -36.373878
v 36.188309 0.034721 -36.373878
vn 0.000000 1.000000 0.000000
s off
f 2//1 4//1 3//1
f 1//1 2//1 3//1
o Cube
v 0.736001 0.223300 -0.815500
v 0.736001 0.223300 0.725836
v -0.805336 0.223300 0.725836
v -0.805336 0.223300 -0.815501
v 0.270000 1.764637 -0.815500
v 0.269999 1.764637 0.123201
v -0.805336 1.764637 0.123200
v -0.805336 1.764637 -0.815500
vn 0.000000 -1.000000 0.000000
vn 0.000000 1.000000 0.000000
vn 0.957200 0.289400 0.000000
vn -0.000000 0.364100 0.931300
vn -1.000000 -0.000000 -0.000000
vn 0.000000 0.000000 -1.000000
s off
f 5//2 6//2 7//2
f 12//3 11//3 10//3
f 5//4 9//4 10//4
f 10//5 11//5 7//5
f 11//6 12//6 8//6
f 9//7 5//7 8//7
f 8//2 5//2 7//2
f 9//3 12//3 10//3
f 6//4 5//4 10//4
f 6//5 10//5 7//5
f 7//6 11//6 8//6
f 12//7 9//7 8//7
